<?xml version="1.0" encoding="iso-8859-1"?>
<!-- Generator: Adobe Illustrator 19.0.0, SVG Export Plug-In . SVG Version: 6.00 Build 0)  -->
<svg version="1.1" id="Layer_1" xmlns="http://www.w3.org/2000/svg" xmlns:xlink="http://www.w3.org/1999/xlink" x="0px" y="0px"
	 viewBox="0 0 453.332 453.332" style="enable-background:new 0 0 453.332 453.332;" xml:space="preserve">
<g transform="translate(0 -1004.36)" shape-rendering="auto" image-rendering="auto" color-rendering="auto" color-interpolation="sRGB">
	<path style="fill:#3B322E;" d="M90.582,1047.026L90.582,1047.026c-3.438,0.001-6.49,2.199-7.583,5.458L0.415,1297.818
		c-1.402,4.19,0.859,8.724,5.049,10.126c3.64,1.218,7.632-0.322,9.513-3.668c31.479-56.256,89.713-90.865,152.771-90.958
		c63.058-0.107,121.381,34.34,153.021,90.5c2.131,3.871,6.996,5.281,10.867,3.151c3.647-2.008,5.145-6.477,3.445-10.276
		l-50.188-114.999l70.646,8.833c7.354,18.934,25.66,32.5,47.124,32.5c27.888,0,50.667-22.779,50.667-50.667
		s-22.779-50.667-50.667-50.667c-10.202,0-19.696,3.081-27.666,8.313c-0.19-0.126-0.386-0.244-0.587-0.352l-146.625-81.604
		c-1.188-0.676-2.529-1.035-3.895-1.046H90.579L90.582,1047.026z"/>
	<path style="fill:#EA6153;" d="M96.332,1063.048h125.479l140.979,78.479c-6.659,8.577-10.793,19.208-10.793,30.854
		c0,0.555,0.149,1.072,0.171,1.624l-74.708-9.333l-19.563-44.812c-1.772-4.05-6.491-5.897-10.541-4.125
		c-4.05,1.771-5.897,6.491-4.125,10.541l53.771,123.208c-34.998-32.628-80.543-52.221-129.271-52.146
		c-51.841,0.107-100.628,21.598-136.208,58.271l64.813-192.562H96.332z"/>
	<path style="fill:#EFEFEF;" d="M402.665,1137.714c19.241,0,34.667,15.426,34.667,34.667s-15.426,34.667-34.667,34.667
		c-19.241,0-34.667-15.426-34.667-34.667C367.998,1153.141,383.425,1137.715,402.665,1137.714L402.665,1137.714z"/>
	<g>
		<path style="fill:#3B322E;" d="M98.665,1303.048c-30.833,0-56,25.167-56,56c0,30.833,25.167,56,56,56
			c29.934,0,54.444-23.738,55.855-53.333h26.958c1.411,29.595,25.922,53.333,55.854,53.333c30.834,0,56-25.167,56-56
			c0-30.833-25.166-56-56-56c-26.237,0-48.318,18.234-54.333,42.667h-30C146.984,1321.283,124.904,1303.048,98.665,1303.048z"/>
		<g>
			<path style="fill:#C8F2E6;" d="M98.665,1319.048c22.187,0,40,17.814,40,40c0,22.186-17.813,40-40,40c-22.186,0-40-17.814-40-40
				C58.665,1336.862,76.479,1319.048,98.665,1319.048z"/>
			<path style="fill:#C8F2E6;" d="M237.332,1319.048c22.187,0,40,17.814,40,40c0,22.186-17.813,40-40,40c-22.186,0-40-17.814-40-40
				C197.332,1336.862,215.146,1319.048,237.332,1319.048z"/>
		</g>
	</g>
	<g>
		<path style="fill:#C75A4E;" d="M210.833,1063.048l140.979,78.479c-7.416,7.755-10.883,20.55-10.793,31.089l11.125,1.395
			c0-0.555-0.171-1.07-0.171-1.624c0-11.647,4.133-22.277,10.793-30.854l-140.979-78.479h-10.979L210.833,1063.048z"/>
		<path style="fill:#C75A4E;" d="M239.707,1115.068c-5.824-0.107-9.79,5.872-7.458,11.208l47.604,109.083
			c5.925,4.419,11.701,9.049,17.146,14.125l-53.771-123.208c-1.352-3.092-0.619-6.7,1.833-9.021
			C243.611,1115.885,241.702,1115.104,239.707,1115.068L239.707,1115.068z"/>
	</g>
	<path style="fill:#CBCBCB;" d="M402.665,1137.714c-1.884,0-3.699,0.277-5.5,0.565c16.585,2.624,29.187,16.747,29.187,34.105
		c0,17.358-12.603,31.48-29.187,34.103c1.801,0.288,3.616,0.565,5.5,0.565c19.241,0,34.667-15.426,34.667-34.667
		c0-19.24-15.426-34.667-34.667-34.667V1137.714z"/>
	<path style="fill:#C75A4E;" d="M156.749,1197.339c-44.534,0.107-86.765,16.05-120.354,43.771l-4.876,14.5
		c34.373-35.43,81.108-56.503,130.979-58c-1.924-0.107-3.815-0.277-5.749-0.267V1197.339z"/>
	<g>
		<path style="fill:#ACCEC4;" d="M98.665,1319.048c-1.879,0-3.67,0.298-5.478,0.544c19.531,2.682,34.499,19.159,34.499,39.458
			s-14.969,36.776-34.499,39.458c1.808,0.245,3.599,0.544,5.478,0.544c22.187,0,40-17.814,40-40c0-22.186-17.813-40-40-40V1319.048z
			"/>
		<path style="fill:#ACCEC4;" d="M237.332,1319.048c-1.879,0-3.67,0.298-5.478,0.544c19.531,2.682,34.499,19.159,34.499,39.458
			s-14.969,36.776-34.499,39.458c1.808,0.245,3.599,0.544,5.478,0.544c22.187,0,40-17.814,40-40c0-22.186-17.813-40-40-40V1319.048z
			"/>
	</g>
</g>
<g>
</g>
<g>
</g>
<g>
</g>
<g>
</g>
<g>
</g>
<g>
</g>
<g>
</g>
<g>
</g>
<g>
</g>
<g>
</g>
<g>
</g>
<g>
</g>
<g>
</g>
<g>
</g>
<g>
</g>
</svg>
